<?xml version="1.0" standalone="no"?>
<!DOCTYPE svg PUBLIC "-//W3C//DTD SVG 20010904//EN"
 "http://www.w3.org/TR/2001/REC-SVG-20010904/DTD/svg10.dtd">
<svg version="1.0" xmlns="http://www.w3.org/2000/svg"
 width="1024.000000pt" height="1024.000000pt" viewBox="0 0 1024.000000 1024.000000"
 preserveAspectRatio="xMidYMid meet">
<metadata>
Created by potrace 1.14, written by Peter Selinger 2001-2017
</metadata>
<g transform="translate(0.000000,1024.000000) scale(0.100000,-0.100000)"
fill="#000000" stroke="none">
<path d="M306 8409 c-62 -15 -153 -68 -197 -116 -22 -24 -55 -74 -72 -111
l-32 -67 0 -2990 c0 -2824 1 -2993 18 -3040 38 -109 142 -208 256 -245 l66
-20 4795 2 c4550 3 4797 4 4840 21 106 41 203 144 239 254 20 61 21 82 21 601
0 580 -1 591 -55 690 -44 81 -109 146 -222 222 -172 116 -256 187 -376 320
-221 244 -361 554 -413 910 -20 143 -15 498 10 628 67 355 205 632 434 873
112 118 197 189 343 286 155 104 223 187 263 322 24 80 24 1086 1 1176 -30
114 -107 203 -224 259 l-66 31 -4795 2 c-2865 0 -4811 -3 -4834 -8z m6286
-721 c-3 -247 -1 -299 13 -333 49 -131 222 -170 321 -74 62 61 66 80 62 407
l-3 292 1408 0 1407 0 -2 -467 -3 -466 -110 -75 c-263 -178 -490 -412 -647
-664 -123 -199 -222 -447 -271 -683 -38 -179 -50 -300 -49 -505 0 -784 332
-1423 963 -1851 l119 -80 0 -464 0 -465 -1405 0 -1405 0 0 283 c0 319 -4 336
-75 395 -100 82 -253 46 -306 -72 -17 -37 -19 -70 -19 -323 l0 -283 -3075 0
-3075 0 0 2860 0 2860 3078 0 3077 0 -3 -292z"/>
<path d="M6745 6818 c-53 -11 -113 -61 -136 -112 -17 -37 -19 -70 -19 -321 0
-310 4 -328 68 -389 94 -88 257 -53 313 69 17 36 19 69 19 320 0 250 -2 284
-19 320 -39 87 -132 134 -226 113z"/>
<path d="M1897 6489 c-58 -14 -92 -34 -131 -80 -46 -54 -59 -96 -54 -172 4
-61 20 -92 743 -1402 407 -737 753 -1355 769 -1373 58 -66 148 -93 237 -72
104 25 75 -23 884 1445 722 1308 739 1341 743 1402 2 33 -1 78 -8 98 -17 51
-76 114 -130 139 -45 21 -46 21 -1530 23 -850 0 -1501 -3 -1523 -8z m1343
-1361 c0 -1023 -1 -1042 -19 -1013 -25 40 -1131 2046 -1131 2051 0 2 259 4
575 4 l575 0 0 -1042z m1470 1037 c0 -4 -1029 -1873 -1131 -2055 -5 -8 -9 452
-9 1023 l0 1037 570 0 c314 0 570 -2 570 -5z"/>
<path d="M6745 5538 c-53 -11 -113 -61 -136 -112 -17 -37 -19 -70 -19 -321 0
-310 4 -328 68 -389 94 -88 257 -53 313 69 17 36 19 69 19 320 0 250 -2 284
-19 320 -39 87 -132 134 -226 113z"/>
<path d="M6745 4258 c-53 -11 -113 -61 -136 -112 -17 -37 -19 -70 -19 -321 0
-310 4 -328 68 -389 94 -88 257 -53 313 69 17 36 19 69 19 320 0 250 -2 284
-19 320 -39 87 -132 134 -226 113z"/>
</g>
</svg>
